# AST/ASF file generated using VICON BodyLanguage
# -----------------------------------------------
:version 1.10
:name VICON
:units
  mass 1.0
  length 0.45
  angle deg
:documentation
   .ast/.asf automatically generated from VICON data using
   VICON BodyBuilder and BodyLanguage model FoxedUp or BRILLIANT.MOD
:root
   order TX TY TZ RX RY RZ
   axis XYZ
   position 0 0 0  
   orientation 0 0 0 
:bonedata
  begin
     id 1 
     name lhipjoint
     direction 0.567725 -0.736092 0.368589 
     length 2.42353 
     axis 0 0 0  XYZ
  end
  begin
     id 2 
     name lfemur
     direction 0.34202 -0.939693 0  
     length 7.24894  
     axis 0 0 20  XYZ
    dof rx ry rz
    limits (-160.0 20.0)
           (-70.0 70.0)
           (-60.0 70.0)
  end
  begin
     id 3 
     name ltibia
     direction 0.34202 -0.939693 0   
     length 7.6997   
     axis 0 0 20   XYZ
    dof rx
    limits (-10.0 170.0)
  end
  begin
     id 4 
     name lfoot
     direction 0.100767 -0.276854 0.955614   
     length 2.37556   
     axis -90 7.62852e-016 20   XYZ
    dof rx rz
    limits (-45.0 90.0)
           (-70.0 20.0)
  end
  begin
     id 5 
     name ltoes
     direction 1.53592e-011 -4.21894e-011 1   
     length 1.18363   
     axis -90 7.62852e-016 20   XYZ
    dof rx
    limits (-90.0 20.0)
  end
  begin
     id 6 
     name rhipjoint
     direction -0.556459 -0.742938 0.372017   
     length 2.4012  
     axis 0 0 0  XYZ 
  end
  begin
     id 7 
     name rfemur
     direction -0.34202 -0.939693 0   
     length 7.5119   
     axis 0 0 -20   XYZ
    dof rx ry rz
    limits (-160.0 20.0)
           (-70.0 70.0)
           (-70.0 60.0)
  end
  begin
     id 8 
     name rtibia
     direction -0.34202 -0.939693 0   
     length 7.50155   
     axis 0 0 -20   XYZ
    dof rx
    limits (-10.0 170.0)
 end
 begin
     id 9 
     name rfoot
     direction -0.118427 -0.325376 0.938139   
     length 2.32487  
     axis -90 -7.62852e-016 -20   XYZ
    dof rx rz
    limits (-45.0 90.0)
           (-20.0 70.0)
  end
  begin
     id 10 
     name rtoes
     direction -1.53525e-011 -4.21868e-011 1   
     length 1.15233   
     axis -90 -7.62852e-016 -20   XYZ
    dof rx
    limits (-90.0 20.0)
  end
  begin
     id 11 
     name lowerback
     direction 0.0287568 0.999577 -0.00434502   
     length 2.15243   
     axis 0 0 0   XYZ
    dof rx ry rz
    limits (-20.0 45.0)
           (-30.0 30.0)
           (-30.0 30.0)
  end
  begin
     id 12 
     name upperback
     direction 0.0294009 0.99956 0.00404628   
     length 2.15427   
     axis 0 0 0   XYZ
    dof rx ry rz
    limits (-20.0 45.0)
           (-30.0 30.0)
           (-30.0 30.0)
  end
  begin
     id 13 
     name thorax
     direction 0.0151014 0.999868 0.0059419   
     length 2.14898   
     axis 0 0 0   XYZ
    dof rx ry rz
    limits (-20.0 45.0)
           (-30.0 30.0)
           (-30.0 30.0)
  end
  begin
     id 14 
     name lowerneck
     direction -0.0249197 0.989906 0.139515   
     length 1.6861   
     axis 0 0 0   XYZ
    dof rx ry rz
    limits (-20.0 45.0)
           (-30.0 30.0)
           (-30.0 30.0)
  end
  begin
     id 15 
     name upperneck
     direction 0.0438463 0.988795 -0.142693   
     length 1.71276   
     axis 0 0 0   XYZ
    dof rx ry rz
    limits (-20.0 45.0)
           (-30.0 30.0)
           (-30.0 30.0)
  end
  begin
     id 16
     name head
     direction 0.0148499 0.997845 -0.0639186  
     length 1.7209  
     axis 0 0 0   XYZ
    dof rx ry rz
    limits (-20.0 45.0)
           (-30.0 30.0)
           (-30.0 30.0)
  end
  begin
     id 17 
     name lclavicle
     direction 0.940298 0.323464 -0.105876  
     length 3.9048  
     axis 0 0 0   XYZ
    dof ry rz
    limits (-20.0 10.0)
           (0.0 20.0)
  end
  begin
     id 18 
     name lhumerus
     direction 1 -4.48954e-011 -4.9675e-028   
     length 4.6851   
     axis 180 -30 -90   XYZ
    dof rx ry rz
    limits (-60.0 90.0)
           (-90.0 90.0)
           (-90.0 90.0)
  end
  begin
     id 19
     name lradius
     direction 1 -4.48992e-011 -1.03359e-026   
     length 3.39626   
     axis 180 -30 -90   XYZ
    dof rx
    limits (-10.0 170.0)
  end
  begin
     id 20
     name lwrist
     direction 1 -4.48906e-011 -1.67336e-026   
     length 1.69813   
     axis 9.90442e-015 90 90   XYZ
    dof ry
    limits (-180.0 0.0)
 end
  begin
     id 21 
     name lhand
     direction 1 -4.49006e-011 -3.34673e-026   
     length 0.486078   
     axis 2.1355e-014 90 90   XYZ
    dof rx rz
    limits (-90.0 90.0)
           (-45.0 45.0)
  end
  begin
     id 22 
     name lfingers
     direction 1 -4.48992e-011 -6.69345e-026   
     length 0.391889   
     axis 4.27099e-014 90 90   XYZ
    dof rx
    limits (0.0 90.0)
  end
  begin
     id 23
     name lthumb
     direction 0.707107 -6.34926e-011 0.707107   
     length 0.562676   
     axis -90 45 2.85299e-015   XYZ
    dof rx rz
    limits (-45.0 45.0)
           (-45.0 45.0)
  end
  begin
     id 24 
     name rclavicle
     direction -0.882459 0.414895 -0.221648   
     length 3.44646  
     axis 0 0 0   XYZ 
    dof ry rz
    limits (-10.0 20.0)
           (-20.0 0.0)
  end
  begin
     id 25 
     name rhumerus
     direction -1 -4.48962e-011 -2.37984e-027  
     length 5.55576   
     axis 180 30 90   XYZ
    dof rx ry rz
    limits (-90.0 60.0)
           (-90.0 90.0)
           (-90.0 90.0)
  end
  begin
     id 26 
     name rradius
     direction -1 -4.48982e-011 -6.86791e-027   
     length 3.32774   
     axis 180 30 90   XYZ
    dof rx
    limits (-10.0 170.0)
  end
  begin
     id 27 
     name rwrist
     direction -1 -4.48961e-011 -1.67336e-026   
     length 1.66387   
     axis 9.90442e-015 -90 -90   XYZ
    dof ry
    limits (-180.0 0.0)
  end
  begin
     id 28
     name rhand
     direction -1 -4.4897e-011 -3.34673e-026   
     length 0.507628   
     axis 2.1355e-014 -90 -90   XYZ
    dof rx rz
    limits (-90.0 90.0)
           (-45.0 45.0)
  end
  begin
     id 29
     name rfingers
     direction -1 -4.48854e-011 -6.69345e-026   
     length 0.409263   
     axis 4.27099e-014 -90 -90   XYZ
    dof rx
    limits (0.0 90.0)
  end
  begin
     id 30
     name rthumb
     direction -0.707107 -6.34913e-011 0.707107   
     length 0.587622   
     axis -90 -45 -2.85299e-015   XYZ
    dof rx rz
    limits (-45.0 45.0)
           (-45.0 45.0)
  end
:hierarchy
  begin
    root lhipjoint rhipjoint lowerback
    lhipjoint lfemur
    lfemur ltibia
    ltibia lfoot
    lfoot ltoes
    rhipjoint rfemur
    rfemur rtibia
    rtibia rfoot
    rfoot rtoes
    lowerback upperback
    upperback thorax
    thorax lowerneck lclavicle rclavicle
    lowerneck upperneck
    upperneck head
    lclavicle lhumerus
    lhumerus lradius
    lradius lwrist
    lwrist lhand lthumb
    lhand lfingers
    rclavicle rhumerus
    rhumerus rradius
    rradius rwrist
    rwrist rhand rthumb
    rhand rfingers
  end

#!OML:ASF E:\motion texture\Top Level 1\Subject 1\Session 1\male.ASF
:FULLY-SPECIFIED
:DEGREES
61
root 40.6809 17.6681 4.17741 127.827 -81.092 -119.643
lowerback -3.10255 0.000744105 7.01196
upperback -0.149703 -0.415925 3.74983
thorax 1.57322 -0.215899 -0.0809498
lowerneck -16.6825 -1.80651 -4.86279
upperneck 11.2061 -2.23053 6.04936
head 6.25372 -0.797389 2.50585
rclavicle -3.37934e-015 -5.1684e-014
rhumerus -28.1866 -14.3625 -76.5985
rradius 22.9839
rwrist 19.0577
rhand -13.1428 -24.158
rfingers 7.12502
rthumb 12.9555 -53.7358
lclavicle -3.37934e-015 -5.1684e-014
lhumerus -32.3238 26.8444 80.7638
lradius 23.6603
lwrist -34.3482
lhand -13.8109 17.8296
lfingers 7.12502
lthumb 12.3115 47.4472
rfemur -7.51819 2.03151 32.6405
rtibia 17.132
rfoot -12.8583 -7.59296
rtoes 15.11
lfemur -26.0532 6.48511 -7.21745
ltibia 45.0416
lfoot -12.1778 7.37911
ltoes -8.15696
62
root 40.6508 17.6682 4.16992 128.345 -81.0073 -120.158
lowerback -3.03108 0.0178734 7.07236
upperback -0.142104 -0.389203 3.75412
thorax 1.54208 -0.203169 -0.108575
lowerneck -16.7 -1.8327 -4.8635
upperneck 11.2575 -2.27428 6.09167
head 6.2762 -0.814735 2.51546
rclavicle -1.20762e-014 -3.69739e-014
rhumerus -28.2543 -14.4137 -76.4649
rradius 22.9199
rwrist 19.1277
rhand -13.1481 -24.1495
rfingers 7.12502
rthumb 12.9504 -53.7276
lclavicle -1.20762e-014 -3.69739e-014
lhumerus -32.3562 26.7321 80.8407
lradius 23.6886
lwrist -34.305
lhand -13.777 17.8464
lfingers 7.12502
lthumb 12.3441 47.462
rfemur -7.34032 2.04604 32.6879
rtibia 17.0201
rfoot -12.891 -7.50628
rtoes 15.0884
lfemur -26.7164 6.7704 -7.18866
ltibia 45.7976
lfoot -12.0569 7.31132
ltoes -8.42412
63
root 40.6197 17.6686 4.16288 128.861 -80.9272 -120.667
lowerback -2.96628 0.0344703 7.13105
upperback -0.134733 -0.363562 3.75571
thorax 1.51443 -0.19086 -0.138128
lowerneck -16.7153 -1.85894 -4.86445
upperneck 11.3037 -2.31794 6.13379
head 6.29663 -0.832103 2.52502
rclavicle 6.11263e-015 2.50469e-014
rhumerus -28.3206 -14.4689 -76.3302
rradius 22.8539
rwrist 19.2007
rhand -13.1526 -24.1436
rfingers 7.12502
rthumb 12.9461 -53.722
lclavicle 6.11263e-015 2.50469e-014
lhumerus -32.3903 26.6315 80.9081
lradius 23.7085
lwrist -34.2755
lhand -13.7422 17.8584
lfingers 7.12502
lthumb 12.3777 47.472
rfemur -7.16021 2.06256 32.7278
rtibia 16.8996
rfoot -12.9211 -7.42538
rtoes 15.0626
lfemur -27.3673 7.04658 -7.16641
ltibia 46.4746
lfoot -11.9318 7.24396
ltoes -8.66778
64
root 40.5875 17.6692 4.15631 129.389 -80.8526 -121.182
lowerback -2.9063 0.0503745 7.18478
upperback -0.129124 -0.338848 3.7555
thorax 1.48766 -0.179018 -0.166897
lowerneck -16.7233 -1.88518 -4.86508
upperneck 11.3427 -2.36089 6.17098
head 6.3135 -0.849648 2.53295
rclavicle -1.42131e-014 4.37326e-015
rhumerus -28.3887 -14.5251 -76.1919
rradius 22.7871
rwrist 19.276
rhand -13.1576 -24.1349
rfingers 7.12502
rthumb 12.9413 -53.7136
lclavicle -1.42131e-014 4.37326e-015
lhumerus -32.4292 26.5433 80.9659
lradius 23.7202
lwrist -34.2601
lhand -13.7039 17.872
lfingers 7.12502
lthumb 12.4146 47.4834
rfemur -6.97733 2.08134 32.7577
rtibia 16.7713
rfoot -12.9491 -7.35002
rtoes 15.0329
lfemur -28.002 7.31314 -7.15302
ltibia 47.0658
lfoot -11.801 7.18079
ltoes -8.90494
65
root 40.5543 17.6701 4.15021 129.913 -80.7826 -121.689
lowerback -2.84497 0.0660836 7.23421
upperback -0.127097 -0.313714 3.75458
thorax 1.45651 -0.167165 -0.194028
lowerneck -16.735 -1.91222 -4.86642
upperneck 11.3822 -2.40418 6.20514
head 6.33114 -0.867547 2.53996
rclavicle 1.60022e-014 1.55052e-014
rhumerus -28.4598 -14.5827 -76.0491
rradius 22.7202
rwrist 19.351
rhand -13.1605 -24.1252
rfingers 7.12502
rthumb 12.9384 -53.704
lclavicle 1.60022e-014 1.55052e-014
lhumerus -32.4731 26.4674 81.0153
lradius 23.7232
lwrist -34.2593
lhand -13.6644 17.887
lfingers 7.12502
lthumb 12.4527 47.496
rfemur -6.79303 2.10221 32.7803
rtibia 16.636
rfoot -12.9752 -7.28084
rtoes 15.0001
lfemur -28.6197 7.56839 -7.14522
ltibia 47.5679
lfoot -11.6666 7.12015
ltoes -9.12541
66
root 40.5199 17.6711 4.14458 130.444 -80.7168 -122.2
lowerback -2.78483 0.082859 7.28039
upperback -0.124028 -0.287017 3.751
thorax 1.42722 -0.154433 -0.222083
lowerneck -16.7637 -1.94127 -4.86818
upperneck 11.4258 -2.44995 6.24137
head 6.35313 -0.886175 2.54747
rclavicle 5.86415e-015 3.37934e-014
rhumerus -28.5261 -14.6468 -75.9056
rradius 22.6535
rwrist 19.4263
rhand -13.1655 -24.1095
rfingers 7.12502
rthumb 12.9337 -53.6887
lclavicle 5.86415e-015 3.37934e-014
lhumerus -32.5117 26.3998 81.0595
lradius 23.7175
lwrist -34.2717
lhand -13.6212 17.9039
lfingers 7.12502
lthumb 12.4943 47.5104
rfemur -6.60625 2.12559 32.7946
rtibia 16.4936
rfoot -12.9995 -7.21687
rtoes 14.9633
lfemur -29.2166 7.81257 -7.14323
ltibia 47.9765
lfoot -11.5287 7.06498
ltoes -9.33213
67
root 40.4844 17.6723 4.13942 130.973 -80.656 -122.702
lowerback -2.72953 0.0983969 7.32392
upperback -0.123269 -0.262055 3.74555
thorax 1.39818 -0.142586 -0.250713
lowerneck -16.7841 -1.96999 -4.87011
upperneck 11.4615 -2.49473 6.27438
head 6.37114 -0.90475 2.554
rclavicle 2.88238e-015 3.61788e-014
rhumerus -28.5938 -14.7108 -75.7613
rradius 22.5866
rwrist 19.5026
rhand -13.1684 -24.1023
rfingers 7.12502
rthumb 12.9309 -53.6817
lclavicle 2.88238e-015 3.61788e-014
lhumerus -32.5549 26.3451 81.0925
lradius 23.7036
lwrist -34.2969
lhand -13.5776 17.9225
lfingers 7.12502
lthumb 12.5364 47.5264
rfemur -6.41927 2.15141 32.8016
rtibia 16.3457
rfoot -13.0223 -7.15949
rtoes 14.9231
lfemur -29.7927 8.04325 -7.1462
ltibia 48.2882
lfoot -11.3881 7.01512
ltoes -9.51991
68
root 40.4478 17.6736 4.13472 131.507 -80.5988 -123.205
lowerback -2.6712 0.11274 7.36257
upperback -0.130766 -0.237575 3.74084
thorax 1.35893 -0.131464 -0.275941
lowerneck -16.7935 -1.99731 -4.87819
upperneck 11.4965 -2.53673 6.30824
head 6.38701 -0.922359 2.5621
rclavicle -3.47873e-015 2.5842e-014
rhumerus -28.6731 -14.7674 -75.6111
rradius 22.5211
rwrist 19.5775
rhand -13.1704 -24.0837
rfingers 7.12502
rthumb 12.9289 -53.6632
lclavicle -3.47873e-015 2.5842e-014
lhumerus -32.6159 26.3022 81.1129
lradius 23.6847
lwrist -34.3328
lhand -13.5313 17.9426
lfingers 7.12502
lthumb 12.581 47.5437
rfemur -6.23151 2.18087 32.8019
rtibia 16.193
rfoot -13.0439 -7.10799
rtoes 14.879
lfemur -30.3446 8.26222 -7.15311
ltibia 48.4994
lfoot -11.2434 6.97181
ltoes -9.6995
69
root 40.4101 17.675 4.13051 132.037 -80.5459 -123.698
lowerback -2.61191 0.127164 7.39684
upperback -0.140643 -0.212467 3.73565
thorax 1.31674 -0.120174 -0.299251
lowerneck -16.8111 -2.02637 -4.88617
upperneck 11.532 -2.58025 6.33872
head 6.4045 -0.940807 2.56892
rclavicle 1.05853e-014 -1.55052e-014
rhumerus -28.7517 -14.8255 -75.4582
rradius 22.4567
rwrist 19.6496
rhand -13.1729 -24.0726
rfingers 7.12502
rthumb 12.9265 -53.6522
lclavicle 1.05853e-014 -1.55052e-014
lhumerus -32.6771 26.27 81.1268
lradius 23.6578
lwrist -34.3821
lhand -13.4803 17.9604
lfingers 7.12502
lthumb 12.6301 47.5586
rfemur -6.04407 2.21312 32.7957
rtibia 16.036
rfoot -13.0647 -7.06272
rtoes 14.8294
lfemur -30.8724 8.46598 -7.16308
ltibia 48.6096
lfoot -11.0985 6.93424
ltoes -9.85425
70
root 40.3713 17.6764 4.12678 132.561 -80.4965 -124.181
lowerback -2.5606 0.141326 7.4353
upperback -0.147026 -0.188609 3.7245
thorax 1.28258 -0.109104 -0.331114
lowerneck -16.8346 -2.05572 -4.88892
upperneck 11.5606 -2.62484 6.36891
head 6.42077 -0.959496 2.57461
rclavicle -1.0635e-014 6.0033e-014
rhumerus -28.822 -14.8924 -75.3127
rradius 22.3919
rwrist 19.7256
rhand -13.1769 -24.0608
rfingers 7.12502
rthumb 12.9227 -53.6406
lclavicle -1.0635e-014 6.0033e-014
lhumerus -32.729 26.2459 81.1297
lradius 23.6223
lwrist -34.4425
lhand -13.4297 17.979
lfingers 7.12502
lthumb 12.679 47.5741
rfemur -5.85719 2.24696 32.784
rtibia 15.8759
rfoot -13.0853 -7.02275
rtoes 14.7788
lfemur -31.3738 8.65421 -7.17443
ltibia 48.6167
lfoot -10.9542 6.90347
ltoes -9.98949
71
root 40.3313 17.6777 4.12359 133.084 -80.4489 -124.658
lowerback -2.51706 0.155941 7.46837
upperback -0.151566 -0.165044 3.71628
thorax 1.25475 -0.0980531 -0.357008
lowerneck -16.858 -2.08593 -4.8945
upperneck 11.5819 -2.66864 6.39355
head 6.43461 -0.978396 2.57898
rclavicle 9.93923e-016 -3.97569e-016
rhumerus -28.8861 -14.9573 -75.163
rradius 22.3279
rwrist 19.7979
rhand -13.1778 -24.0476
rfingers 7.12502
rthumb 12.9218 -53.6275
lclavicle 9.93923e-016 -3.97569e-016
lhumerus -32.7787 26.2363 81.131
lradius 23.5808
lwrist -34.5154
lhand -13.3769 17.9979
lfingers 7.12502
lthumb 12.7298 47.5899
rfemur -5.67029 2.28289 32.7676
rtibia 15.7142
rfoot -13.1059 -6.98672
rtoes 14.7201
lfemur -31.8453 8.82795 -7.18584
ltibia 48.5173
lfoot -10.8106 6.88154
ltoes -10.1164
72
root 40.2901 17.6789 4.12091 133.599 -80.4036 -125.122
lowerback -2.47228 0.169392 7.49916
upperback -0.16245 -0.142384 3.70913
thorax 1.21962 -0.0878241 -0.380608
lowerneck -16.8728 -2.11535 -4.90257
upperneck 11.5996 -2.71044 6.41518
head 6.44572 -0.996845 2.58297
rclavicle 1.22253e-014 -3.02153e-014
rhumerus -28.9565 -15.0162 -75.0099
rradius 22.2653
rwrist 19.8693
rhand -13.1796 -24.0252
rfingers 7.12502
rthumb 12.92 -53.6052
lclavicle 1.22253e-014 -3.02153e-014
lhumerus -32.8397 26.2362 81.1224
lradius 23.5351
lwrist -34.597
lhand -13.3238 18.0162
lfingers 7.12502
lthumb 12.7811 47.605
rfemur -5.48591 2.31999 32.7473
rtibia 15.552
rfoot -13.1271 -6.9553
rtoes 14.6576
lfemur -32.2887 8.98541 -7.19645
ltibia 48.3128
lfoot -10.6683 6.86675
ltoes -10.2288
73
root 40.2478 17.68 4.11873 134.106 -80.361 -125.573
lowerback -2.40953 0.181716 7.52183
upperback -0.190157 -0.118003 3.70696
thorax 1.15712 -0.0779751 -0.394582
lowerneck -16.8778 -2.14431 -4.91838
upperneck 11.624 -2.75029 6.43545
head 6.4573 -1.01493 2.58805
rclavicle 2.19657e-014 5.60573e-014
rhumerus -29.0494 -15.0575 -74.8458
rradius 22.2094
rwrist 19.9301
rhand -13.1782 -24.0114
rfingers 7.12502
rthumb 12.9214 -53.5914
lclavicle 2.19657e-014 5.60573e-014
lhumerus -32.93 26.2433 81.1032
lradius 23.488
lwrist -34.6864
lhand -13.2686 18.0351
lfingers 7.12502
lthumb 12.8343 47.6206
rfemur -5.30422 2.35806 32.7227
rtibia 15.3907
rfoot -13.1491 -6.92822
rtoes 14.592
lfemur -32.7026 9.12557 -7.20607
ltibia 48.0035
lfoot -10.5308 6.86018
ltoes -10.3145
74
root 40.2044 17.6809 4.11708 134.603 -80.3193 -126.008
lowerback -2.35898 0.193751 7.54584
upperback -0.213618 -0.0956289 3.70419
thorax 1.10578 -0.0687325 -0.410007
lowerneck -16.8797 -2.17306 -4.93267
upperneck 11.637 -2.78898 6.45106
head 6.46457 -1.03287 2.59142
rclavicle -4.37326e-015 -2.74323e-014
rhumerus -29.1321 -15.0995 -74.6856
rradius 22.1545
rwrist 19.9889
rhand -13.1745 -23.9946
rfingers 7.12502
rthumb 12.925 -53.5743
lclavicle -4.37326e-015 -2.74323e-014
lhumerus -33.0128 26.2592 81.0797
lradius 23.4352
lwrist -34.781
lhand -13.2153 18.0571
lfingers 7.12502
lthumb 12.8857 47.6393
rfemur -5.12482 2.39663 32.6955
rtibia 15.2307
rfoot -13.1724 -6.90444
rtoes 14.5205
lfemur -33.0848 9.24805 -7.21214
ltibia 47.5893
lfoot -10.3946 6.86207
ltoes -10.3896
